<?xml version="1.0" encoding="UTF-8" standalone="no"?>
<!-- Created with Inkscape (http://www.inkscape.org/) -->

<svg
   xmlns:dc="http://purl.org/dc/elements/1.1/"
   xmlns:cc="http://creativecommons.org/ns#"
   xmlns:rdf="http://www.w3.org/1999/02/22-rdf-syntax-ns#"
   xmlns:svg="http://www.w3.org/2000/svg"
   xmlns="http://www.w3.org/2000/svg"
   xmlns:sodipodi="http://sodipodi.sourceforge.net/DTD/sodipodi-0.dtd"
   xmlns:inkscape="http://www.inkscape.org/namespaces/inkscape"
   width="744.09448819"
   height="1052.3622047"
   id="svg2"
   version="1.1"
   inkscape:version="0.48.5 r10040"
   sodipodi:docname="New document 1">
  <defs
     id="defs4" />
  <sodipodi:namedview
     id="base"
     pagecolor="#ffffff"
     bordercolor="#666666"
     borderopacity="1.0"
     inkscape:pageopacity="0.0"
     inkscape:pageshadow="2"
     inkscape:zoom="3.959798"
     inkscape:cx="89.874599"
     inkscape:cy="614.57485"
     inkscape:document-units="px"
     inkscape:current-layer="layer1"
     showgrid="false"
     inkscape:window-width="1392"
     inkscape:window-height="853"
     inkscape:window-x="0"
     inkscape:window-y="-1"
     inkscape:window-maximized="1" />
  <metadata
     id="metadata7">
    <rdf:RDF>
      <cc:Work
         rdf:about="">
        <dc:format>image/svg+xml</dc:format>
        <dc:type
           rdf:resource="http://purl.org/dc/dcmitype/StillImage" />
        <dc:title></dc:title>
      </cc:Work>
    </rdf:RDF>
  </metadata>
  <g
     inkscape:label="Layer 1"
     inkscape:groupmode="layer"
     id="layer1">
    <rect
       style="fill:none;fill-opacity:1;fill-rule:nonzero;stroke:none;stroke-width:1;stroke-linecap:butt;stroke-linejoin:round;stroke-miterlimit:4;stroke-opacity:1;stroke-dasharray:none"
       id="rect3773"
       width="112.632"
       height="112.632"
       x="58.336308"
       y="373.53964"
       inkscape:export-xdpi="204.56"
       inkscape:export-ydpi="204.56" />
    <g
       id="g3775"
       transform="translate(-1.5195656,1.6368942)">
      <path
         sodipodi:nodetypes="sscccssssccccccss"
         inkscape:connector-curvature="0"
         id="path3767"
         d="m 118.1875,383.90625 c -25.488556,0 -46.3125,20.82393 -46.3125,46.3125 0,25.48855 20.823937,46.31251 46.3125,46.3125 l 0,-14.75 -4.02479,-4.00172 -2.43194,3.34908 C 103.10163,473.01197 86.625,445.51734 86.625,430.21875 c 0,-17.51339 14.04912,-31.5625 31.5625,-31.5625 17.51338,0 31.53125,14.04911 31.53125,31.5625 0,5.89129 -1.71185,11.56616 -4.75,16.5 L 125.28125,426.5 l -10.59375,10.28125 38.5625,39.625 10.59375,-10.28125 -8.4375,-8.65625 c 5.76773,-7.88535 9.0625,-17.361 9.0625,-27.25 0,-25.48857 -20.79269,-46.3125 -46.28125,-46.3125 z"
         style="font-size:medium;font-style:normal;font-variant:normal;font-weight:normal;font-stretch:normal;text-indent:0;text-align:start;text-decoration:none;line-height:normal;letter-spacing:normal;word-spacing:normal;text-transform:none;direction:ltr;block-progression:tb;writing-mode:lr-tb;text-anchor:start;baseline-shift:baseline;color:#000000;fill:#000000;fill-opacity:1;stroke:none;stroke-width:14.75683212;marker:none;visibility:visible;display:inline;overflow:visible;enable-background:accumulate;font-family:Sans;-inkscape-font-specification:Sans" />
      <path
         inkscape:connector-curvature="0"
         id="path3757"
         d="m 114.1875,379.90625 c -25.488556,0 -46.3125,20.82393 -46.3125,46.3125 0,25.48855 20.823937,46.31251 46.3125,46.3125 l 0,-14.75 c -17.513369,10e-6 -31.5625,-14.04913 -31.5625,-31.5625 0,-17.51339 14.049124,-31.5625 31.5625,-31.5625 17.51338,0 31.53125,14.04911 31.53125,31.5625 0,5.89129 -1.71185,11.56616 -4.75,16.5 L 121.28125,422.5 l -10.59375,10.28125 38.5625,39.625 10.59375,-10.28125 -8.4375,-8.65625 c 5.76773,-7.88535 9.0625,-17.361 9.0625,-27.25 0,-25.48857 -20.79269,-46.3125 -46.28125,-46.3125 z"
         style="font-size:medium;font-style:normal;font-variant:normal;font-weight:normal;font-stretch:normal;text-indent:0;text-align:start;text-decoration:none;line-height:normal;letter-spacing:normal;word-spacing:normal;text-transform:none;direction:ltr;block-progression:tb;writing-mode:lr-tb;text-anchor:start;baseline-shift:baseline;color:#000000;fill:#93a7ac;fill-opacity:1;stroke:none;stroke-width:14.75683212;marker:none;visibility:visible;display:inline;overflow:visible;enable-background:accumulate;font-family:Sans;-inkscape-font-specification:Sans" />
    </g>
  </g>
</svg>
